<?xml version='1.0' encoding='UTF-8'?>
<svg xmlns="http://www.w3.org/2000/svg" width="985" height="530" viewBox="0 0 985 530" font-family="'SF Mono', 'Fira Code', 'JetBrains Mono', ui-monospace, monospace">
  <rect x="0" y="0" width="985" height="530" rx="10" fill="#0d1117"/>

  <!-- window header -->
  <rect x="0" y="0" width="985" height="40" rx="10" fill="#161b22"/>
  <rect x="0" y="26" width="985" height="14" fill="#161b22"/>
  <rect x="0" y="40" width="985" height="1" fill="#21262d"/>
  <circle cx="26" cy="20" r="6" fill="#484f58"/>
  <circle cx="46" cy="20" r="6" fill="#484f58"/>
  <circle cx="66" cy="20" r="6" fill="#484f58"/>
  <text x="492" y="25" font-size="12" fill="#6e7681" text-anchor="middle">github / skittlegit</text>

  <!-- identity -->
  <text x="44" y="88" font-size="23" font-weight="bold" fill="#e6edf3">Deepak Reddy</text>
  <text x="44" y="114" font-size="13" fill="#8b949e">BTech AI student &#8212; building full-stack &amp; ML products.</text>

  <rect x="44" y="136" width="897" height="1" fill="#21262d"/>

  <!-- stats -->
  <text x="44" y="174" font-size="14" fill="#8b949e">age</text>
  <text x="240" y="174" font-size="14" fill="#e6edf3" id="age_data">20 years, 7 months, 22 days</text>

  <text x="44" y="208" font-size="14" fill="#8b949e">commits</text>
  <text x="240" y="208" font-size="14" fill="#e6edf3" id="commit_data">477</text>

  <text x="44" y="242" font-size="14" fill="#8b949e">stars</text>
  <text x="240" y="242" font-size="14" fill="#e6edf3" id="star_data">0</text>

  <text x="44" y="276" font-size="14" fill="#8b949e">repos</text>
  <text x="240" y="276" font-size="14" fill="#e6edf3" id="repo_data">21</text>

  <text x="44" y="310" font-size="14" fill="#8b949e">contributed</text>
  <text x="240" y="310" font-size="14" fill="#e6edf3" id="contrib_data">26</text>

  <text x="44" y="344" font-size="14" fill="#8b949e">followers</text>
  <text x="240" y="344" font-size="14" fill="#e6edf3" id="follower_data">14</text>

  <rect x="44" y="366" width="897" height="1" fill="#21262d"/>

  <!-- lines of code -->
  <text x="44" y="404" font-size="14" font-weight="bold" fill="#3fb950">++</text>
  <text x="240" y="404" font-size="14" fill="#e6edf3" id="loc_add">647,863</text>

  <text x="44" y="438" font-size="14" font-weight="bold" fill="#f85149">--</text>
  <text x="240" y="438" font-size="14" fill="#e6edf3" id="loc_del">415,440</text>

  <text x="44" y="472" font-size="14" fill="#8b949e">net</text>
  <text x="240" y="472" font-size="14" fill="#e6edf3" id="loc_data">232,423</text>

  <rect x="44" y="494" width="897" height="1" fill="#21262d"/>

  <!-- footer -->
  <text x="44" y="518" font-size="12" xml:space="preserve"><tspan fill="#8b949e">github.com/skittlegit</tspan><tspan fill="#30363d">   &#183;   </tspan><tspan fill="#8b949e">linkedin.com/in/deepakaeleni</tspan><tspan fill="#30363d">   &#183;   </tspan><tspan fill="#8b949e">deepakrdy7@gmail.com</tspan></text>

  <rect x="0.5" y="0.5" width="984" height="529" rx="10" fill="none" stroke="#30363d" stroke-width="1"/>
</svg>
