<?xml version='1.0' encoding='UTF-8'?>
<svg xmlns="http://www.w3.org/2000/svg" width="985" height="530" viewBox="0 0 985 530" font-family="'SF Mono', 'JetBrains Mono', 'Fira Code', ui-monospace, monospace">
  <rect x="0" y="0" width="985" height="530" rx="16" fill="#ffffff"/>

  <!-- masthead -->
  <circle cx="64" cy="54" r="3" fill="#1a7f37"/>
  <text x="76" y="58" font-size="11" letter-spacing="2" fill="#6e7681">GITHUB / @SKITTLEGIT</text>
  <text x="925" y="58" text-anchor="end" font-size="11" letter-spacing="2" fill="#6e7681">MAHINDRA UNIVERSITY · ’27</text>

  <!-- identity -->
  <text x="60" y="112" font-size="38" font-weight="bold" fill="#1f2328" font-family="Inter, 'Segoe UI', Helvetica, Arial, sans-serif">Deepak Aeleni</text>
  <text x="60" y="138" font-size="14" fill="#424a53" font-family="Inter, 'Segoe UI', Helvetica, Arial, sans-serif">Full-stack &amp; Machine Learning Developer</text>

  <rect x="60" y="160" width="865" height="1" fill="#d8dee4"/>

  <!-- stat spec row -->
  <rect x="217" y="178" width="1" height="58" fill="#d8dee4"/>
  <rect x="390" y="178" width="1" height="58" fill="#d8dee4"/>
  <rect x="563" y="178" width="1" height="58" fill="#d8dee4"/>
  <rect x="736" y="178" width="1" height="58" fill="#d8dee4"/>

  <text x="60" y="208" font-size="30" fill="#1f2328" id="commit_data">486</text>
  <text x="60" y="230" font-size="10" letter-spacing="1.5" fill="#6e7681">COMMITS</text>
  <text x="233" y="208" font-size="30" fill="#1f2328" id="repo_data">21</text>
  <text x="233" y="230" font-size="10" letter-spacing="1.5" fill="#6e7681">REPOS</text>
  <text x="406" y="208" font-size="30" fill="#1f2328" id="star_data">0</text>
  <text x="406" y="230" font-size="10" letter-spacing="1.5" fill="#6e7681">STARS</text>
  <text x="579" y="208" font-size="30" fill="#1f2328" id="contrib_data">26</text>
  <text x="579" y="230" font-size="10" letter-spacing="1.5" fill="#6e7681">CONTRIBUTED</text>
  <text x="752" y="208" font-size="30" fill="#1f2328" id="follower_data">14</text>
  <text x="752" y="230" font-size="10" letter-spacing="1.5" fill="#6e7681">FOLLOWERS</text>

  <rect x="60" y="248" width="865" height="1" fill="#d8dee4"/>

  <!-- contribution heatmap -->
  <text x="60" y="272" font-size="10" letter-spacing="1.5" fill="#6e7681">CONTRIBUTIONS</text>
  <text x="925" y="272" text-anchor="end" font-size="11" letter-spacing="1" xml:space="preserve"><tspan fill="#1f2328" id="contrib_year">680</tspan><tspan fill="#6e7681"> IN THE LAST YEAR</tspan></text>
  <g id="contrib_graph" transform="translate(60,282)"><rect x="0" y="0" width="10" height="10" rx="2" ry="2" fill="#ebedf0"/><rect x="0" y="13" width="10" height="10" rx="2" ry="2" fill="#ebedf0"/><rect x="0" y="26" width="10" height="10" rx="2" ry="2" fill="#ebedf0"/><rect x="0" y="39" width="10" height="10" rx="2" ry="2" fill="#ebedf0"/><rect x="0" y="52" width="10" height="10" rx="2" ry="2" fill="#ebedf0"/><rect x="0" y="65" width="10" height="10" rx="2" ry="2" fill="#ebedf0"/><rect x="0" y="78" width="10" height="10" rx="2" ry="2" fill="#ebedf0"/><rect x="13" y="0" width="10" height="10" rx="2" ry="2" fill="#ebedf0"/><rect x="13" y="13" width="10" height="10" rx="2" ry="2" fill="#ebedf0"/><rect x="13" y="26" width="10" height="10" rx="2" ry="2" fill="#ebedf0"/><rect x="13" y="39" width="10" height="10" rx="2" ry="2" fill="#ebedf0"/><rect x="13" y="52" width="10" height="10" rx="2" ry="2" fill="#ebedf0"/><rect x="13" y="65" width="10" height="10" rx="2" ry="2" fill="#ebedf0"/><rect x="13" y="78" width="10" height="10" rx="2" ry="2" fill="#40c463"/><rect x="26" y="0" width="10" height="10" rx="2" ry="2" fill="#ebedf0"/><rect x="26" y="13" width="10" height="10" rx="2" ry="2" fill="#ebedf0"/><rect x="26" y="26" width="10" height="10" rx="2" ry="2" fill="#ebedf0"/><rect x="26" y="39" width="10" height="10" rx="2" ry="2" fill="#ebedf0"/><rect x="26" y="52" width="10" height="10" rx="2" ry="2" fill="#ebedf0"/><rect x="26" y="65" width="10" height="10" rx="2" ry="2" fill="#30a14e"/><rect x="26" y="78" width="10" height="10" rx="2" ry="2" fill="#ebedf0"/><rect x="39" y="0" width="10" height="10" rx="2" ry="2" fill="#ebedf0"/><rect x="39" y="13" width="10" height="10" rx="2" ry="2" fill="#ebedf0"/><rect x="39" y="26" width="10" height="10" rx="2" ry="2" fill="#ebedf0"/><rect x="39" y="39" width="10" height="10" rx="2" ry="2" fill="#ebedf0"/><rect x="39" y="52" width="10" height="10" rx="2" ry="2" fill="#ebedf0"/><rect x="39" y="65" width="10" height="10" rx="2" ry="2" fill="#ebedf0"/><rect x="39" y="78" width="10" height="10" rx="2" ry="2" fill="#ebedf0"/><rect x="52" y="0" width="10" height="10" rx="2" ry="2" fill="#ebedf0"/><rect x="52" y="13" width="10" height="10" rx="2" ry="2" fill="#ebedf0"/><rect x="52" y="26" width="10" height="10" rx="2" ry="2" fill="#ebedf0"/><rect x="52" y="39" width="10" height="10" rx="2" ry="2" fill="#ebedf0"/><rect x="52" y="52" width="10" height="10" rx="2" ry="2" fill="#ebedf0"/><rect x="52" y="65" width="10" height="10" rx="2" ry="2" fill="#ebedf0"/><rect x="52" y="78" width="10" height="10" rx="2" ry="2" fill="#ebedf0"/><rect x="65" y="0" width="10" height="10" rx="2" ry="2" fill="#ebedf0"/><rect x="65" y="13" width="10" height="10" rx="2" ry="2" fill="#ebedf0"/><rect x="65" y="26" width="10" height="10" rx="2" ry="2" fill="#ebedf0"/><rect x="65" y="39" width="10" height="10" rx="2" ry="2" fill="#ebedf0"/><rect x="65" y="52" width="10" height="10" rx="2" ry="2" fill="#ebedf0"/><rect x="65" y="65" width="10" height="10" rx="2" ry="2" fill="#ebedf0"/><rect x="65" y="78" width="10" height="10" rx="2" ry="2" fill="#ebedf0"/><rect x="78" y="0" width="10" height="10" rx="2" ry="2" fill="#ebedf0"/><rect x="78" y="13" width="10" height="10" rx="2" ry="2" fill="#ebedf0"/><rect x="78" y="26" width="10" height="10" rx="2" ry="2" fill="#ebedf0"/><rect x="78" y="39" width="10" height="10" rx="2" ry="2" fill="#ebedf0"/><rect x="78" y="52" width="10" height="10" rx="2" ry="2" fill="#ebedf0"/><rect x="78" y="65" width="10" height="10" rx="2" ry="2" fill="#ebedf0"/><rect x="78" y="78" width="10" height="10" rx="2" ry="2" fill="#ebedf0"/><rect x="91" y="0" width="10" height="10" rx="2" ry="2" fill="#ebedf0"/><rect x="91" y="13" width="10" height="10" rx="2" ry="2" fill="#ebedf0"/><rect x="91" y="26" width="10" height="10" rx="2" ry="2" fill="#ebedf0"/><rect x="91" y="39" width="10" height="10" rx="2" ry="2" fill="#ebedf0"/><rect x="91" y="52" width="10" height="10" rx="2" ry="2" fill="#ebedf0"/><rect x="91" y="65" width="10" height="10" rx="2" ry="2" fill="#ebedf0"/><rect x="91" y="78" width="10" height="10" rx="2" ry="2" fill="#ebedf0"/><rect x="104" y="0" width="10" height="10" rx="2" ry="2" fill="#ebedf0"/><rect x="104" y="13" width="10" height="10" rx="2" ry="2" fill="#ebedf0"/><rect x="104" y="26" width="10" height="10" rx="2" ry="2" fill="#ebedf0"/><rect x="104" y="39" width="10" height="10" rx="2" ry="2" fill="#ebedf0"/><rect x="104" y="52" width="10" height="10" rx="2" ry="2" fill="#ebedf0"/><rect x="104" y="65" width="10" height="10" rx="2" ry="2" fill="#ebedf0"/><rect x="104" y="78" width="10" height="10" rx="2" ry="2" fill="#ebedf0"/><rect x="117" y="0" width="10" height="10" rx="2" ry="2" fill="#ebedf0"/><rect x="117" y="13" width="10" height="10" rx="2" ry="2" fill="#ebedf0"/><rect x="117" y="26" width="10" height="10" rx="2" ry="2" fill="#ebedf0"/><rect x="117" y="39" width="10" height="10" rx="2" ry="2" fill="#ebedf0"/><rect x="117" y="52" width="10" height="10" rx="2" ry="2" fill="#ebedf0"/><rect x="117" y="65" width="10" height="10" rx="2" ry="2" fill="#ebedf0"/><rect x="117" y="78" width="10" height="10" rx="2" ry="2" fill="#ebedf0"/><rect x="130" y="0" width="10" height="10" rx="2" ry="2" fill="#ebedf0"/><rect x="130" y="13" width="10" height="10" rx="2" ry="2" fill="#ebedf0"/><rect x="130" y="26" width="10" height="10" rx="2" ry="2" fill="#ebedf0"/><rect x="130" y="39" width="10" height="10" rx="2" ry="2" fill="#ebedf0"/><rect x="130" y="52" width="10" height="10" rx="2" ry="2" fill="#ebedf0"/><rect x="130" y="65" width="10" height="10" rx="2" ry="2" fill="#ebedf0"/><rect x="130" y="78" width="10" height="10" rx="2" ry="2" fill="#ebedf0"/><rect x="143" y="0" width="10" height="10" rx="2" ry="2" fill="#ebedf0"/><rect x="143" y="13" width="10" height="10" rx="2" ry="2" fill="#ebedf0"/><rect x="143" y="26" width="10" height="10" rx="2" ry="2" fill="#ebedf0"/><rect x="143" y="39" width="10" height="10" rx="2" ry="2" fill="#ebedf0"/><rect x="143" y="52" width="10" height="10" rx="2" ry="2" fill="#ebedf0"/><rect x="143" y="65" width="10" height="10" rx="2" ry="2" fill="#ebedf0"/><rect x="143" y="78" width="10" height="10" rx="2" ry="2" fill="#ebedf0"/><rect x="156" y="0" width="10" height="10" rx="2" ry="2" fill="#ebedf0"/><rect x="156" y="13" width="10" height="10" rx="2" ry="2" fill="#ebedf0"/><rect x="156" y="26" width="10" height="10" rx="2" ry="2" fill="#ebedf0"/><rect x="156" y="39" width="10" height="10" rx="2" ry="2" fill="#ebedf0"/><rect x="156" y="52" width="10" height="10" rx="2" ry="2" fill="#ebedf0"/><rect x="156" y="65" width="10" height="10" rx="2" ry="2" fill="#ebedf0"/><rect x="156" y="78" width="10" height="10" rx="2" ry="2" fill="#ebedf0"/><rect x="169" y="0" width="10" height="10" rx="2" ry="2" fill="#ebedf0"/><rect x="169" y="13" width="10" height="10" rx="2" ry="2" fill="#ebedf0"/><rect x="169" y="26" width="10" height="10" rx="2" ry="2" fill="#ebedf0"/><rect x="169" y="39" width="10" height="10" rx="2" ry="2" fill="#ebedf0"/><rect x="169" y="52" width="10" height="10" rx="2" ry="2" fill="#ebedf0"/><rect x="169" y="65" width="10" height="10" rx="2" ry="2" fill="#ebedf0"/><rect x="169" y="78" width="10" height="10" rx="2" ry="2" fill="#ebedf0"/><rect x="182" y="0" width="10" height="10" rx="2" ry="2" fill="#ebedf0"/><rect x="182" y="13" width="10" height="10" rx="2" ry="2" fill="#ebedf0"/><rect x="182" y="26" width="10" height="10" rx="2" ry="2" fill="#ebedf0"/><rect x="182" y="39" width="10" height="10" rx="2" ry="2" fill="#ebedf0"/><rect x="182" y="52" width="10" height="10" rx="2" ry="2" fill="#ebedf0"/><rect x="182" y="65" width="10" height="10" rx="2" ry="2" fill="#ebedf0"/><rect x="182" y="78" width="10" height="10" rx="2" ry="2" fill="#ebedf0"/><rect x="195" y="0" width="10" height="10" rx="2" ry="2" fill="#ebedf0"/><rect x="195" y="13" width="10" height="10" rx="2" ry="2" fill="#ebedf0"/><rect x="195" y="26" width="10" height="10" rx="2" ry="2" fill="#ebedf0"/><rect x="195" y="39" width="10" height="10" rx="2" ry="2" fill="#ebedf0"/><rect x="195" y="52" width="10" height="10" rx="2" ry="2" fill="#ebedf0"/><rect x="195" y="65" width="10" height="10" rx="2" ry="2" fill="#ebedf0"/><rect x="195" y="78" width="10" height="10" rx="2" ry="2" fill="#ebedf0"/><rect x="208" y="0" width="10" height="10" rx="2" ry="2" fill="#ebedf0"/><rect x="208" y="13" width="10" height="10" rx="2" ry="2" fill="#ebedf0"/><rect x="208" y="26" width="10" height="10" rx="2" ry="2" fill="#ebedf0"/><rect x="208" y="39" width="10" height="10" rx="2" ry="2" fill="#ebedf0"/><rect x="208" y="52" width="10" height="10" rx="2" ry="2" fill="#ebedf0"/><rect x="208" y="65" width="10" height="10" rx="2" ry="2" fill="#ebedf0"/><rect x="208" y="78" width="10" height="10" rx="2" ry="2" fill="#ebedf0"/><rect x="221" y="0" width="10" height="10" rx="2" ry="2" fill="#ebedf0"/><rect x="221" y="13" width="10" height="10" rx="2" ry="2" fill="#ebedf0"/><rect x="221" y="26" width="10" height="10" rx="2" ry="2" fill="#ebedf0"/><rect x="221" y="39" width="10" height="10" rx="2" ry="2" fill="#ebedf0"/><rect x="221" y="52" width="10" height="10" rx="2" ry="2" fill="#ebedf0"/><rect x="221" y="65" width="10" height="10" rx="2" ry="2" fill="#ebedf0"/><rect x="221" y="78" width="10" height="10" rx="2" ry="2" fill="#ebedf0"/><rect x="234" y="0" width="10" height="10" rx="2" ry="2" fill="#ebedf0"/><rect x="234" y="13" width="10" height="10" rx="2" ry="2" fill="#ebedf0"/><rect x="234" y="26" width="10" height="10" rx="2" ry="2" fill="#ebedf0"/><rect x="234" y="39" width="10" height="10" rx="2" ry="2" fill="#ebedf0"/><rect x="234" y="52" width="10" height="10" rx="2" ry="2" fill="#ebedf0"/><rect x="234" y="65" width="10" height="10" rx="2" ry="2" fill="#ebedf0"/><rect x="234" y="78" width="10" height="10" rx="2" ry="2" fill="#ebedf0"/><rect x="247" y="0" width="10" height="10" rx="2" ry="2" fill="#ebedf0"/><rect x="247" y="13" width="10" height="10" rx="2" ry="2" fill="#ebedf0"/><rect x="247" y="26" width="10" height="10" rx="2" ry="2" fill="#ebedf0"/><rect x="247" y="39" width="10" height="10" rx="2" ry="2" fill="#ebedf0"/><rect x="247" y="52" width="10" height="10" rx="2" ry="2" fill="#ebedf0"/><rect x="247" y="65" width="10" height="10" rx="2" ry="2" fill="#ebedf0"/><rect x="247" y="78" width="10" height="10" rx="2" ry="2" fill="#ebedf0"/><rect x="260" y="0" width="10" height="10" rx="2" ry="2" fill="#ebedf0"/><rect x="260" y="13" width="10" height="10" rx="2" ry="2" fill="#ebedf0"/><rect x="260" y="26" width="10" height="10" rx="2" ry="2" fill="#ebedf0"/><rect x="260" y="39" width="10" height="10" rx="2" ry="2" fill="#ebedf0"/><rect x="260" y="52" width="10" height="10" rx="2" ry="2" fill="#ebedf0"/><rect x="260" y="65" width="10" height="10" rx="2" ry="2" fill="#30a14e"/><rect x="260" y="78" width="10" height="10" rx="2" ry="2" fill="#ebedf0"/><rect x="273" y="0" width="10" height="10" rx="2" ry="2" fill="#ebedf0"/><rect x="273" y="13" width="10" height="10" rx="2" ry="2" fill="#ebedf0"/><rect x="273" y="26" width="10" height="10" rx="2" ry="2" fill="#ebedf0"/><rect x="273" y="39" width="10" height="10" rx="2" ry="2" fill="#ebedf0"/><rect x="273" y="52" width="10" height="10" rx="2" ry="2" fill="#ebedf0"/><rect x="273" y="65" width="10" height="10" rx="2" ry="2" fill="#ebedf0"/><rect x="273" y="78" width="10" height="10" rx="2" ry="2" fill="#ebedf0"/><rect x="286" y="0" width="10" height="10" rx="2" ry="2" fill="#ebedf0"/><rect x="286" y="13" width="10" height="10" rx="2" ry="2" fill="#ebedf0"/><rect x="286" y="26" width="10" height="10" rx="2" ry="2" fill="#ebedf0"/><rect x="286" y="39" width="10" height="10" rx="2" ry="2" fill="#ebedf0"/><rect x="286" y="52" width="10" height="10" rx="2" ry="2" fill="#ebedf0"/><rect x="286" y="65" width="10" height="10" rx="2" ry="2" fill="#ebedf0"/><rect x="286" y="78" width="10" height="10" rx="2" ry="2" fill="#ebedf0"/><rect x="299" y="0" width="10" height="10" rx="2" ry="2" fill="#ebedf0"/><rect x="299" y="13" width="10" height="10" rx="2" ry="2" fill="#ebedf0"/><rect x="299" y="26" width="10" height="10" rx="2" ry="2" fill="#ebedf0"/><rect x="299" y="39" width="10" height="10" rx="2" ry="2" fill="#ebedf0"/><rect x="299" y="52" width="10" height="10" rx="2" ry="2" fill="#ebedf0"/><rect x="299" y="65" width="10" height="10" rx="2" ry="2" fill="#ebedf0"/><rect x="299" y="78" width="10" height="10" rx="2" ry="2" fill="#ebedf0"/><rect x="312" y="0" width="10" height="10" rx="2" ry="2" fill="#ebedf0"/><rect x="312" y="13" width="10" height="10" rx="2" ry="2" fill="#ebedf0"/><rect x="312" y="26" width="10" height="10" rx="2" ry="2" fill="#ebedf0"/><rect x="312" y="39" width="10" height="10" rx="2" ry="2" fill="#ebedf0"/><rect x="312" y="52" width="10" height="10" rx="2" ry="2" fill="#ebedf0"/><rect x="312" y="65" width="10" height="10" rx="2" ry="2" fill="#ebedf0"/><rect x="312" y="78" width="10" height="10" rx="2" ry="2" fill="#ebedf0"/><rect x="325" y="0" width="10" height="10" rx="2" ry="2" fill="#ebedf0"/><rect x="325" y="13" width="10" height="10" rx="2" ry="2" fill="#ebedf0"/><rect x="325" y="26" width="10" height="10" rx="2" ry="2" fill="#ebedf0"/><rect x="325" y="39" width="10" height="10" rx="2" ry="2" fill="#ebedf0"/><rect x="325" y="52" width="10" height="10" rx="2" ry="2" fill="#ebedf0"/><rect x="325" y="65" width="10" height="10" rx="2" ry="2" fill="#ebedf0"/><rect x="325" y="78" width="10" height="10" rx="2" ry="2" fill="#ebedf0"/><rect x="338" y="0" width="10" height="10" rx="2" ry="2" fill="#ebedf0"/><rect x="338" y="13" width="10" height="10" rx="2" ry="2" fill="#ebedf0"/><rect x="338" y="26" width="10" height="10" rx="2" ry="2" fill="#ebedf0"/><rect x="338" y="39" width="10" height="10" rx="2" ry="2" fill="#ebedf0"/><rect x="338" y="52" width="10" height="10" rx="2" ry="2" fill="#ebedf0"/><rect x="338" y="65" width="10" height="10" rx="2" ry="2" fill="#ebedf0"/><rect x="338" y="78" width="10" height="10" rx="2" ry="2" fill="#ebedf0"/><rect x="351" y="0" width="10" height="10" rx="2" ry="2" fill="#ebedf0"/><rect x="351" y="13" width="10" height="10" rx="2" ry="2" fill="#ebedf0"/><rect x="351" y="26" width="10" height="10" rx="2" ry="2" fill="#ebedf0"/><rect x="351" y="39" width="10" height="10" rx="2" ry="2" fill="#ebedf0"/><rect x="351" y="52" width="10" height="10" rx="2" ry="2" fill="#ebedf0"/><rect x="351" y="65" width="10" height="10" rx="2" ry="2" fill="#ebedf0"/><rect x="351" y="78" width="10" height="10" rx="2" ry="2" fill="#ebedf0"/><rect x="364" y="0" width="10" height="10" rx="2" ry="2" fill="#ebedf0"/><rect x="364" y="13" width="10" height="10" rx="2" ry="2" fill="#ebedf0"/><rect x="364" y="26" width="10" height="10" rx="2" ry="2" fill="#ebedf0"/><rect x="364" y="39" width="10" height="10" rx="2" ry="2" fill="#ebedf0"/><rect x="364" y="52" width="10" height="10" rx="2" ry="2" fill="#ebedf0"/><rect x="364" y="65" width="10" height="10" rx="2" ry="2" fill="#ebedf0"/><rect x="364" y="78" width="10" height="10" rx="2" ry="2" fill="#ebedf0"/><rect x="377" y="0" width="10" height="10" rx="2" ry="2" fill="#ebedf0"/><rect x="377" y="13" width="10" height="10" rx="2" ry="2" fill="#ebedf0"/><rect x="377" y="26" width="10" height="10" rx="2" ry="2" fill="#ebedf0"/><rect x="377" y="39" width="10" height="10" rx="2" ry="2" fill="#ebedf0"/><rect x="377" y="52" width="10" height="10" rx="2" ry="2" fill="#ebedf0"/><rect x="377" y="65" width="10" height="10" rx="2" ry="2" fill="#ebedf0"/><rect x="377" y="78" width="10" height="10" rx="2" ry="2" fill="#ebedf0"/><rect x="390" y="0" width="10" height="10" rx="2" ry="2" fill="#ebedf0"/><rect x="390" y="13" width="10" height="10" rx="2" ry="2" fill="#ebedf0"/><rect x="390" y="26" width="10" height="10" rx="2" ry="2" fill="#ebedf0"/><rect x="390" y="39" width="10" height="10" rx="2" ry="2" fill="#ebedf0"/><rect x="390" y="52" width="10" height="10" rx="2" ry="2" fill="#ebedf0"/><rect x="390" y="65" width="10" height="10" rx="2" ry="2" fill="#ebedf0"/><rect x="390" y="78" width="10" height="10" rx="2" ry="2" fill="#ebedf0"/><rect x="403" y="0" width="10" height="10" rx="2" ry="2" fill="#ebedf0"/><rect x="403" y="13" width="10" height="10" rx="2" ry="2" fill="#ebedf0"/><rect x="403" y="26" width="10" height="10" rx="2" ry="2" fill="#ebedf0"/><rect x="403" y="39" width="10" height="10" rx="2" ry="2" fill="#ebedf0"/><rect x="403" y="52" width="10" height="10" rx="2" ry="2" fill="#ebedf0"/><rect x="403" y="65" width="10" height="10" rx="2" ry="2" fill="#ebedf0"/><rect x="403" y="78" width="10" height="10" rx="2" ry="2" fill="#ebedf0"/><rect x="416" y="0" width="10" height="10" rx="2" ry="2" fill="#ebedf0"/><rect x="416" y="13" width="10" height="10" rx="2" ry="2" fill="#ebedf0"/><rect x="416" y="26" width="10" height="10" rx="2" ry="2" fill="#ebedf0"/><rect x="416" y="39" width="10" height="10" rx="2" ry="2" fill="#ebedf0"/><rect x="416" y="52" width="10" height="10" rx="2" ry="2" fill="#ebedf0"/><rect x="416" y="65" width="10" height="10" rx="2" ry="2" fill="#ebedf0"/><rect x="416" y="78" width="10" height="10" rx="2" ry="2" fill="#ebedf0"/><rect x="429" y="0" width="10" height="10" rx="2" ry="2" fill="#ebedf0"/><rect x="429" y="13" width="10" height="10" rx="2" ry="2" fill="#ebedf0"/><rect x="429" y="26" width="10" height="10" rx="2" ry="2" fill="#ebedf0"/><rect x="429" y="39" width="10" height="10" rx="2" ry="2" fill="#ebedf0"/><rect x="429" y="52" width="10" height="10" rx="2" ry="2" fill="#ebedf0"/><rect x="429" y="65" width="10" height="10" rx="2" ry="2" fill="#ebedf0"/><rect x="429" y="78" width="10" height="10" rx="2" ry="2" fill="#ebedf0"/><rect x="442" y="0" width="10" height="10" rx="2" ry="2" fill="#ebedf0"/><rect x="442" y="13" width="10" height="10" rx="2" ry="2" fill="#ebedf0"/><rect x="442" y="26" width="10" height="10" rx="2" ry="2" fill="#ebedf0"/><rect x="442" y="39" width="10" height="10" rx="2" ry="2" fill="#ebedf0"/><rect x="442" y="52" width="10" height="10" rx="2" ry="2" fill="#ebedf0"/><rect x="442" y="65" width="10" height="10" rx="2" ry="2" fill="#ebedf0"/><rect x="442" y="78" width="10" height="10" rx="2" ry="2" fill="#ebedf0"/><rect x="455" y="0" width="10" height="10" rx="2" ry="2" fill="#ebedf0"/><rect x="455" y="13" width="10" height="10" rx="2" ry="2" fill="#ebedf0"/><rect x="455" y="26" width="10" height="10" rx="2" ry="2" fill="#9be9a8"/><rect x="455" y="39" width="10" height="10" rx="2" ry="2" fill="#ebedf0"/><rect x="455" y="52" width="10" height="10" rx="2" ry="2" fill="#ebedf0"/><rect x="455" y="65" width="10" height="10" rx="2" ry="2" fill="#ebedf0"/><rect x="455" y="78" width="10" height="10" rx="2" ry="2" fill="#ebedf0"/><rect x="468" y="0" width="10" height="10" rx="2" ry="2" fill="#ebedf0"/><rect x="468" y="13" width="10" height="10" rx="2" ry="2" fill="#ebedf0"/><rect x="468" y="26" width="10" height="10" rx="2" ry="2" fill="#ebedf0"/><rect x="468" y="39" width="10" height="10" rx="2" ry="2" fill="#ebedf0"/><rect x="468" y="52" width="10" height="10" rx="2" ry="2" fill="#ebedf0"/><rect x="468" y="65" width="10" height="10" rx="2" ry="2" fill="#ebedf0"/><rect x="468" y="78" width="10" height="10" rx="2" ry="2" fill="#ebedf0"/><rect x="481" y="0" width="10" height="10" rx="2" ry="2" fill="#ebedf0"/><rect x="481" y="13" width="10" height="10" rx="2" ry="2" fill="#ebedf0"/><rect x="481" y="26" width="10" height="10" rx="2" ry="2" fill="#ebedf0"/><rect x="481" y="39" width="10" height="10" rx="2" ry="2" fill="#ebedf0"/><rect x="481" y="52" width="10" height="10" rx="2" ry="2" fill="#ebedf0"/><rect x="481" y="65" width="10" height="10" rx="2" ry="2" fill="#ebedf0"/><rect x="481" y="78" width="10" height="10" rx="2" ry="2" fill="#ebedf0"/><rect x="494" y="0" width="10" height="10" rx="2" ry="2" fill="#ebedf0"/><rect x="494" y="13" width="10" height="10" rx="2" ry="2" fill="#ebedf0"/><rect x="494" y="26" width="10" height="10" rx="2" ry="2" fill="#ebedf0"/><rect x="494" y="39" width="10" height="10" rx="2" ry="2" fill="#ebedf0"/><rect x="494" y="52" width="10" height="10" rx="2" ry="2" fill="#ebedf0"/><rect x="494" y="65" width="10" height="10" rx="2" ry="2" fill="#ebedf0"/><rect x="494" y="78" width="10" height="10" rx="2" ry="2" fill="#ebedf0"/><rect x="507" y="0" width="10" height="10" rx="2" ry="2" fill="#9be9a8"/><rect x="507" y="13" width="10" height="10" rx="2" ry="2" fill="#30a14e"/><rect x="507" y="26" width="10" height="10" rx="2" ry="2" fill="#216e39"/><rect x="507" y="39" width="10" height="10" rx="2" ry="2" fill="#9be9a8"/><rect x="507" y="52" width="10" height="10" rx="2" ry="2" fill="#40c463"/><rect x="507" y="65" width="10" height="10" rx="2" ry="2" fill="#ebedf0"/><rect x="507" y="78" width="10" height="10" rx="2" ry="2" fill="#ebedf0"/><rect x="520" y="0" width="10" height="10" rx="2" ry="2" fill="#ebedf0"/><rect x="520" y="13" width="10" height="10" rx="2" ry="2" fill="#ebedf0"/><rect x="520" y="26" width="10" height="10" rx="2" ry="2" fill="#ebedf0"/><rect x="520" y="39" width="10" height="10" rx="2" ry="2" fill="#ebedf0"/><rect x="520" y="52" width="10" height="10" rx="2" ry="2" fill="#ebedf0"/><rect x="520" y="65" width="10" height="10" rx="2" ry="2" fill="#ebedf0"/><rect x="520" y="78" width="10" height="10" rx="2" ry="2" fill="#ebedf0"/><rect x="533" y="0" width="10" height="10" rx="2" ry="2" fill="#9be9a8"/><rect x="533" y="13" width="10" height="10" rx="2" ry="2" fill="#9be9a8"/><rect x="533" y="26" width="10" height="10" rx="2" ry="2" fill="#ebedf0"/><rect x="533" y="39" width="10" height="10" rx="2" ry="2" fill="#ebedf0"/><rect x="533" y="52" width="10" height="10" rx="2" ry="2" fill="#ebedf0"/><rect x="533" y="65" width="10" height="10" rx="2" ry="2" fill="#ebedf0"/><rect x="533" y="78" width="10" height="10" rx="2" ry="2" fill="#ebedf0"/><rect x="546" y="0" width="10" height="10" rx="2" ry="2" fill="#ebedf0"/><rect x="546" y="13" width="10" height="10" rx="2" ry="2" fill="#9be9a8"/><rect x="546" y="26" width="10" height="10" rx="2" ry="2" fill="#9be9a8"/><rect x="546" y="39" width="10" height="10" rx="2" ry="2" fill="#9be9a8"/><rect x="546" y="52" width="10" height="10" rx="2" ry="2" fill="#9be9a8"/><rect x="546" y="65" width="10" height="10" rx="2" ry="2" fill="#ebedf0"/><rect x="546" y="78" width="10" height="10" rx="2" ry="2" fill="#40c463"/><rect x="559" y="0" width="10" height="10" rx="2" ry="2" fill="#9be9a8"/><rect x="559" y="13" width="10" height="10" rx="2" ry="2" fill="#9be9a8"/><rect x="559" y="26" width="10" height="10" rx="2" ry="2" fill="#40c463"/><rect x="559" y="39" width="10" height="10" rx="2" ry="2" fill="#40c463"/><rect x="559" y="52" width="10" height="10" rx="2" ry="2" fill="#30a14e"/><rect x="559" y="65" width="10" height="10" rx="2" ry="2" fill="#9be9a8"/><rect x="559" y="78" width="10" height="10" rx="2" ry="2" fill="#9be9a8"/><rect x="572" y="0" width="10" height="10" rx="2" ry="2" fill="#40c463"/><rect x="572" y="13" width="10" height="10" rx="2" ry="2" fill="#9be9a8"/><rect x="572" y="26" width="10" height="10" rx="2" ry="2" fill="#9be9a8"/><rect x="572" y="39" width="10" height="10" rx="2" ry="2" fill="#9be9a8"/><rect x="572" y="52" width="10" height="10" rx="2" ry="2" fill="#9be9a8"/><rect x="572" y="65" width="10" height="10" rx="2" ry="2" fill="#ebedf0"/><rect x="572" y="78" width="10" height="10" rx="2" ry="2" fill="#9be9a8"/><rect x="585" y="0" width="10" height="10" rx="2" ry="2" fill="#40c463"/><rect x="585" y="13" width="10" height="10" rx="2" ry="2" fill="#9be9a8"/><rect x="585" y="26" width="10" height="10" rx="2" ry="2" fill="#9be9a8"/><rect x="585" y="39" width="10" height="10" rx="2" ry="2" fill="#ebedf0"/><rect x="585" y="52" width="10" height="10" rx="2" ry="2" fill="#9be9a8"/><rect x="585" y="65" width="10" height="10" rx="2" ry="2" fill="#9be9a8"/><rect x="585" y="78" width="10" height="10" rx="2" ry="2" fill="#9be9a8"/><rect x="598" y="0" width="10" height="10" rx="2" ry="2" fill="#216e39"/><rect x="598" y="13" width="10" height="10" rx="2" ry="2" fill="#ebedf0"/><rect x="598" y="26" width="10" height="10" rx="2" ry="2" fill="#9be9a8"/><rect x="598" y="39" width="10" height="10" rx="2" ry="2" fill="#ebedf0"/><rect x="598" y="52" width="10" height="10" rx="2" ry="2" fill="#ebedf0"/><rect x="598" y="65" width="10" height="10" rx="2" ry="2" fill="#30a14e"/><rect x="598" y="78" width="10" height="10" rx="2" ry="2" fill="#40c463"/><rect x="611" y="0" width="10" height="10" rx="2" ry="2" fill="#40c463"/><rect x="611" y="13" width="10" height="10" rx="2" ry="2" fill="#9be9a8"/><rect x="611" y="26" width="10" height="10" rx="2" ry="2" fill="#ebedf0"/><rect x="611" y="39" width="10" height="10" rx="2" ry="2" fill="#9be9a8"/><rect x="611" y="52" width="10" height="10" rx="2" ry="2" fill="#9be9a8"/><rect x="611" y="65" width="10" height="10" rx="2" ry="2" fill="#ebedf0"/><rect x="611" y="78" width="10" height="10" rx="2" ry="2" fill="#40c463"/><rect x="624" y="0" width="10" height="10" rx="2" ry="2" fill="#40c463"/><rect x="624" y="13" width="10" height="10" rx="2" ry="2" fill="#9be9a8"/><rect x="624" y="26" width="10" height="10" rx="2" ry="2" fill="#ebedf0"/><rect x="624" y="39" width="10" height="10" rx="2" ry="2" fill="#40c463"/><rect x="624" y="52" width="10" height="10" rx="2" ry="2" fill="#9be9a8"/><rect x="624" y="65" width="10" height="10" rx="2" ry="2" fill="#ebedf0"/><rect x="624" y="78" width="10" height="10" rx="2" ry="2" fill="#ebedf0"/><rect x="637" y="0" width="10" height="10" rx="2" ry="2" fill="#ebedf0"/><rect x="637" y="13" width="10" height="10" rx="2" ry="2" fill="#ebedf0"/><rect x="637" y="26" width="10" height="10" rx="2" ry="2" fill="#ebedf0"/><rect x="637" y="39" width="10" height="10" rx="2" ry="2" fill="#9be9a8"/><rect x="637" y="52" width="10" height="10" rx="2" ry="2" fill="#ebedf0"/><rect x="637" y="65" width="10" height="10" rx="2" ry="2" fill="#ebedf0"/><rect x="637" y="78" width="10" height="10" rx="2" ry="2" fill="#ebedf0"/><rect x="650" y="0" width="10" height="10" rx="2" ry="2" fill="#ebedf0"/><rect x="650" y="13" width="10" height="10" rx="2" ry="2" fill="#ebedf0"/><rect x="650" y="26" width="10" height="10" rx="2" ry="2" fill="#ebedf0"/><rect x="650" y="39" width="10" height="10" rx="2" ry="2" fill="#ebedf0"/><rect x="650" y="52" width="10" height="10" rx="2" ry="2" fill="#ebedf0"/><rect x="650" y="65" width="10" height="10" rx="2" ry="2" fill="#ebedf0"/><rect x="650" y="78" width="10" height="10" rx="2" ry="2" fill="#ebedf0"/><rect x="663" y="0" width="10" height="10" rx="2" ry="2" fill="#ebedf0"/><rect x="663" y="13" width="10" height="10" rx="2" ry="2" fill="#ebedf0"/><rect x="663" y="26" width="10" height="10" rx="2" ry="2" fill="#ebedf0"/><rect x="663" y="39" width="10" height="10" rx="2" ry="2" fill="#9be9a8"/><rect x="663" y="52" width="10" height="10" rx="2" ry="2" fill="#9be9a8"/><rect x="663" y="65" width="10" height="10" rx="2" ry="2" fill="#ebedf0"/><rect x="663" y="78" width="10" height="10" rx="2" ry="2" fill="#9be9a8"/><rect x="676" y="0" width="10" height="10" rx="2" ry="2" fill="#ebedf0"/><rect x="676" y="13" width="10" height="10" rx="2" ry="2" fill="#9be9a8"/><rect x="676" y="26" width="10" height="10" rx="2" ry="2" fill="#9be9a8"/><rect x="676" y="39" width="10" height="10" rx="2" ry="2" fill="#9be9a8"/><rect x="676" y="52" width="10" height="10" rx="2" ry="2" fill="#ebedf0"/></g>

  <rect x="60" y="387" width="865" height="1" fill="#d8dee4"/>

  <!-- lines of code -->
  <text x="60" y="408" font-size="10" letter-spacing="1.5" fill="#6e7681">LINES OF CODE</text>
  <text x="925" y="408" text-anchor="end" font-size="13" xml:space="preserve"><tspan fill="#6e7681">NET  </tspan><tspan fill="#1f2328" id="loc_data">232,868</tspan></text>

  <rect x="60" y="420" width="865" height="7" rx="3.5" fill="#cf222e"/>
  <rect x="60" y="420" width="526" height="7" rx="3.5" fill="#1a7f37" id="loc_add_bar"/>

  <text x="60" y="448" font-size="12" xml:space="preserve"><tspan fill="#1a7f37">+ </tspan><tspan fill="#1a7f37" id="loc_add">652,544</tspan><tspan fill="#6e7681"> added</tspan></text>
  <text x="925" y="448" text-anchor="end" font-size="12" xml:space="preserve"><tspan fill="#cf222e">− </tspan><tspan fill="#cf222e" id="loc_del">419,676</tspan><tspan fill="#6e7681"> removed</tspan></text>

  <rect x="60" y="467" width="865" height="1" fill="#d8dee4"/>

  <!-- footer -->
  <text x="60" y="490" font-size="12" xml:space="preserve"><tspan fill="#59636e">github.com/skittlegit</tspan><tspan fill="#d0d7de">   ·   </tspan><tspan fill="#59636e">linkedin.com/in/deepakaeleni</tspan><tspan fill="#d0d7de">   ·   </tspan><tspan fill="#59636e">deepakrdy7@gmail.com</tspan></text>
  <text x="925" y="490" text-anchor="end" font-size="11" letter-spacing="1" xml:space="preserve"><tspan fill="#6e7681">UPTIME · </tspan><tspan fill="#59636e" id="age_data">20 years, 7 months, 25 days</tspan></text>

  <rect x="0.5" y="0.5" width="984" height="529" rx="16" fill="none" stroke="#d0d7de" stroke-width="1"/>
</svg>